<svg xmlns="http://www.w3.org/2000/svg" xmlns:xlink="http://www.w3.org/1999/xlink" width="561" zoomAndPan="magnify" viewBox="0 0 420.75 420.749985" height="561" preserveAspectRatio="xMidYMid meet" version="1.0"><defs><clipPath id="631f997621"><path d="M 0 0 L 419.753906 0 L 419.753906 419.753906 L 0 419.753906 Z M 0 0 " clip-rule="nonzero"/></clipPath><clipPath id="e705d7cb16"><path d="M 419.753906 74.957031 L 419.753906 344.796875 C 419.753906 364.675781 411.855469 383.742188 397.800781 397.800781 C 383.742188 411.855469 364.675781 419.753906 344.796875 419.753906 L 74.957031 419.753906 C 55.074219 419.753906 36.011719 411.855469 21.953125 397.800781 C 7.898438 383.742188 0 364.675781 0 344.796875 L 0 74.957031 C 0 55.074219 7.898438 36.011719 21.953125 21.953125 C 36.011719 7.898438 55.074219 0 74.957031 0 L 344.796875 0 C 364.675781 0 383.742188 7.898438 397.800781 21.953125 C 411.855469 36.011719 419.753906 55.074219 419.753906 74.957031 Z M 419.753906 74.957031 " clip-rule="nonzero"/></clipPath><clipPath id="8e19c8638f"><path d="M 0 0 L 419.753906 0 L 419.753906 419.753906 L 0 419.753906 Z M 0 0 " clip-rule="nonzero"/></clipPath><clipPath id="b7ccefbdf8"><path d="M 419.753906 74.957031 L 419.753906 344.796875 C 419.753906 364.675781 411.855469 383.742188 397.800781 397.800781 C 383.742188 411.855469 364.675781 419.753906 344.796875 419.753906 L 74.957031 419.753906 C 55.074219 419.753906 36.011719 411.855469 21.953125 397.800781 C 7.898438 383.742188 0 364.675781 0 344.796875 L 0 74.957031 C 0 55.074219 7.898438 36.011719 21.953125 21.953125 C 36.011719 7.898438 55.074219 0 74.957031 0 L 344.796875 0 C 364.675781 0 383.742188 7.898438 397.800781 21.953125 C 411.855469 36.011719 419.753906 55.074219 419.753906 74.957031 Z M 419.753906 74.957031 " clip-rule="nonzero"/></clipPath><clipPath id="756593ef14"><rect x="0" width="420" y="0" height="420"/></clipPath><clipPath id="4865bd6754"><path d="M 74 52.601562 L 346 52.601562 L 346 367 L 74 367 Z M 74 52.601562 " clip-rule="nonzero"/></clipPath></defs><g clip-path="url(#631f997621)"><g clip-path="url(#e705d7cb16)"><g transform="matrix(1, 0, 0, 1, 0, 0)"><g clip-path="url(#756593ef14)"><g clip-path="url(#8e19c8638f)"><g clip-path="url(#b7ccefbdf8)"><path fill="#0000ac" d="M 0 0 L 419.753906 0 L 419.753906 419.753906 L 0 419.753906 Z M 0 0 " fill-opacity="1" fill-rule="nonzero"/></g></g></g></g></g></g><g clip-path="url(#4865bd6754)"><path fill="#ffffff" d="M 220.851562 365.894531 C 243.242188 354.449219 263.777344 340.304688 282.453125 323.460938 C 286.699219 319.667969 290.753906 315.628906 294.625 311.34375 L 299.628906 305.65625 C 302.1875 302.871094 304.464844 299.96875 306.910156 296.839844 C 309.355469 293.710938 312.597656 289.730469 314.871094 286.035156 C 320.230469 278.339844 324.933594 270.261719 328.980469 261.804688 C 331.195312 257.195312 333.246094 252.476562 335.121094 247.695312 C 339.875 235.136719 343.042969 222.1875 344.621094 208.847656 C 345.074219 205.152344 345.417969 201.453125 345.644531 197.757812 C 346.324219 188.242188 345.980469 178.761719 344.621094 169.316406 C 343.644531 162.46875 342.152344 155.730469 340.148438 149.109375 C 338.144531 142.488281 335.648438 136.054688 332.664062 129.816406 C 329.675781 123.574219 326.234375 117.59375 322.339844 111.878906 C 318.441406 106.160156 314.132812 100.773438 309.410156 95.714844 C 306.703125 92.808594 303.871094 90.023438 300.917969 87.363281 C 297.964844 84.703125 294.898438 82.179688 291.722656 79.789062 C 288.546875 77.398438 285.273438 75.152344 281.902344 73.050781 C 278.527344 70.945312 275.070312 68.996094 271.527344 67.195312 C 267.980469 65.398438 264.363281 63.757812 260.675781 62.277344 C 256.988281 60.796875 253.242188 59.480469 249.4375 58.328125 C 245.632812 57.175781 241.785156 56.191406 237.894531 55.378906 C 234.007812 54.566406 230.085938 53.921875 226.140625 53.453125 C 223.582031 53.320312 221.042969 53.035156 218.519531 52.601562 L 200.542969 52.601562 C 200.542969 53.054688 199.917969 52.886719 199.578125 52.941406 C 194.941406 53.316406 190.332031 53.925781 185.757812 54.761719 C 182.074219 55.445312 178.429688 56.277344 174.820312 57.261719 C 171.207031 58.242188 167.640625 59.371094 164.125 60.648438 C 160.605469 61.921875 157.144531 63.339844 153.742188 64.902344 C 150.339844 66.460938 147.007812 68.160156 143.746094 69.996094 C 140.484375 71.828125 137.300781 73.792969 134.199219 75.890625 C 131.101562 77.988281 128.089844 80.207031 125.171875 82.550781 C 122.253906 84.894531 119.4375 87.355469 116.722656 89.929688 C 114.003906 92.503906 111.398438 95.1875 108.90625 97.976562 C 106.410156 100.769531 104.035156 103.65625 101.777344 106.640625 C 99.519531 109.625 97.386719 112.699219 95.382812 115.859375 C 93.375 119.019531 91.503906 122.257812 89.765625 125.574219 C 88.027344 128.886719 86.429688 132.265625 84.96875 135.714844 C 83.507812 139.160156 82.191406 142.660156 81.019531 146.214844 C 79.84375 149.769531 78.820312 153.367188 77.945312 157.003906 C 77.066406 160.644531 76.339844 164.3125 75.765625 168.011719 C 75.191406 171.707031 74.769531 175.425781 74.5 179.15625 C 73.75 189.269531 74.105469 199.34375 75.5625 209.378906 C 77.019531 219.414062 79.546875 229.171875 83.144531 238.652344 C 84.363281 241.835938 85.75 244.945312 87.296875 247.980469 L 88.433594 250.3125 C 92.023438 257.457031 96.207031 264.230469 100.984375 270.640625 C 105.761719 277.050781 111.058594 282.996094 116.875 288.480469 C 119.925781 291.378906 123.101562 294.125 126.410156 296.726562 C 129.714844 299.328125 133.136719 301.769531 136.671875 304.050781 C 140.207031 306.332031 143.839844 308.441406 147.570312 310.382812 C 151.300781 312.324219 155.117188 314.089844 159.011719 315.671875 C 162.910156 317.257812 166.871094 318.660156 170.898438 319.875 C 174.925781 321.089844 179 322.113281 183.125 322.949219 C 187.246094 323.785156 191.398438 324.421875 195.582031 324.871094 C 199.765625 325.316406 203.960938 325.566406 208.167969 325.621094 C 209.757812 325.621094 210.214844 326.019531 210.15625 327.667969 L 210.15625 359.75 C 210.167969 360.054688 210.199219 360.359375 210.25 360.664062 C 210.300781 360.964844 210.371094 361.265625 210.460938 361.558594 C 210.546875 361.851562 210.652344 362.140625 210.777344 362.421875 C 210.902344 362.699219 211.042969 362.972656 211.203125 363.234375 C 211.363281 363.496094 211.539062 363.75 211.726562 363.988281 C 211.917969 364.230469 212.125 364.457031 212.34375 364.671875 C 212.5625 364.886719 212.792969 365.085938 213.039062 365.269531 C 213.285156 365.457031 213.539062 365.625 213.804688 365.777344 C 214.070312 365.929688 214.347656 366.066406 214.628906 366.183594 C 214.914062 366.300781 215.203125 366.402344 215.5 366.484375 C 215.792969 366.566406 216.09375 366.628906 216.398438 366.671875 C 216.703125 366.714844 217.007812 366.738281 217.3125 366.746094 C 217.621094 366.75 217.925781 366.734375 218.230469 366.699219 C 218.535156 366.667969 218.835938 366.613281 219.136719 366.542969 C 219.433594 366.472656 219.726562 366.378906 220.015625 366.273438 C 220.300781 366.164062 220.578125 366.035156 220.851562 365.894531 Z M 222.785156 152.308594 C 222.648438 151.570312 222.625 150.824219 222.71875 150.078125 C 222.808594 149.332031 223.007812 148.613281 223.320312 147.929688 C 223.628906 147.242188 224.035156 146.617188 224.535156 146.054688 C 225.035156 145.492188 225.609375 145.019531 226.253906 144.632812 C 227.351562 143.957031 228.546875 143.632812 229.835938 143.664062 L 280.289062 143.664062 C 284.785156 143.664062 287.34375 147.644531 287.34375 152.820312 L 287.34375 212.433594 C 287.335938 214.542969 287.179688 216.640625 286.867188 218.726562 C 286.554688 220.8125 286.09375 222.863281 285.484375 224.882812 C 284.871094 226.902344 284.117188 228.867188 283.222656 230.777344 C 282.324219 232.6875 281.296875 234.519531 280.132812 236.28125 C 278.96875 238.039062 277.683594 239.703125 276.277344 241.277344 C 274.871094 242.847656 273.359375 244.3125 271.738281 245.664062 C 270.121094 247.015625 268.410156 248.242188 266.613281 249.347656 C 264.816406 250.449219 262.945312 251.417969 261.007812 252.246094 L 259.871094 252.816406 C 260.117188 253.128906 260.4375 253.28125 260.835938 253.269531 C 260.4375 253.28125 260.117188 253.128906 259.871094 252.816406 L 258.902344 252.816406 C 255.632812 253.773438 252.316406 254.515625 248.949219 255.035156 C 248.683594 255.113281 248.410156 255.160156 248.136719 255.175781 C 247.859375 255.191406 247.582031 255.175781 247.3125 255.128906 C 247.039062 255.082031 246.773438 255.007812 246.515625 254.898438 C 246.261719 254.792969 246.023438 254.660156 245.796875 254.496094 C 245.570312 254.335938 245.367188 254.148438 245.183594 253.941406 C 245.003906 253.734375 244.847656 253.507812 244.714844 253.261719 C 244.582031 253.019531 244.480469 252.761719 244.410156 252.496094 C 244.335938 252.226562 244.296875 251.957031 244.285156 251.679688 C 244.285156 249.859375 244.285156 248.039062 244.285156 245.992188 L 244.285156 236.207031 C 244.285156 235.46875 244.285156 234.785156 244.285156 234.046875 C 244.285156 231.542969 245.253906 230.460938 248.378906 229.78125 C 252.410156 229.078125 255.976562 227.390625 259.074219 224.71875 C 260.839844 223.003906 262.269531 221.042969 263.363281 218.835938 C 264.457031 216.632812 265.148438 214.308594 265.445312 211.863281 L 230.066406 211.863281 C 229.574219 211.878906 229.085938 211.84375 228.601562 211.761719 C 228.117188 211.675781 227.648438 211.542969 227.191406 211.359375 C 226.734375 211.179688 226.304688 210.949219 225.894531 210.679688 C 225.484375 210.40625 225.109375 210.097656 224.761719 209.746094 C 224.417969 209.394531 224.113281 209.015625 223.847656 208.601562 C 223.582031 208.1875 223.363281 207.75 223.1875 207.292969 C 223.011719 206.832031 222.886719 206.359375 222.808594 205.875 C 222.730469 205.390625 222.703125 204.902344 222.726562 204.410156 C 222.726562 187.160156 222.726562 169.90625 222.726562 152.652344 C 222.726562 152.652344 222.785156 152.425781 222.785156 152.308594 Z M 197.585938 212.316406 C 197.597656 215.328125 197.289062 218.308594 196.667969 221.253906 C 196.046875 224.199219 195.125 227.046875 193.898438 229.796875 C 192.671875 232.546875 191.171875 235.136719 189.398438 237.570312 C 187.621094 240.003906 185.613281 242.222656 183.367188 244.226562 L 181.945312 245.59375 C 177.21875 249.375 171.949219 252.105469 166.132812 253.785156 C 163.640625 254.410156 161.117188 254.882812 158.566406 255.207031 C 158.136719 255.269531 157.707031 255.257812 157.28125 255.167969 C 156.855469 255.074219 156.460938 254.910156 156.09375 254.675781 C 155.726562 254.441406 155.414062 254.148438 155.15625 253.796875 C 154.894531 253.449219 154.707031 253.066406 154.585938 252.644531 C 154.585938 247.148438 154.585938 241.667969 154.585938 236.207031 C 154.585938 234.613281 154.015625 232.851562 155.324219 231.429688 C 155.953125 230.707031 156.730469 230.234375 157.65625 230.007812 C 160.585938 229.476562 163.375 228.527344 166.019531 227.164062 C 167.167969 226.496094 168.234375 225.71875 169.21875 224.828125 C 170.207031 223.941406 171.089844 222.960938 171.875 221.886719 C 172.65625 220.816406 173.320312 219.675781 173.867188 218.464844 C 174.414062 217.257812 174.832031 216.003906 175.121094 214.707031 L 176.03125 211.863281 L 141.21875 211.863281 C 140.21875 211.902344 139.234375 211.808594 138.261719 211.578125 C 137.535156 211.382812 136.859375 211.078125 136.234375 210.667969 C 135.605469 210.253906 135.058594 209.753906 134.59375 209.164062 C 134.125 208.574219 133.765625 207.925781 133.507812 207.222656 C 133.25 206.515625 133.109375 205.789062 133.085938 205.039062 C 133.085938 187.558594 133.085938 170.074219 133.085938 152.59375 C 132.949219 151.929688 132.898438 151.257812 132.933594 150.582031 C 132.96875 149.902344 133.085938 149.242188 133.289062 148.59375 C 133.496094 147.949219 133.777344 147.335938 134.136719 146.761719 C 134.496094 146.1875 134.925781 145.667969 135.417969 145.199219 C 136.640625 144.085938 138.082031 143.515625 139.742188 143.492188 L 190.535156 143.492188 C 195.027344 143.492188 197.53125 144.914062 197.53125 152.652344 C 197.585938 154.074219 197.699219 193.261719 197.585938 212.316406 Z M 197.585938 212.316406 " fill-opacity="1" fill-rule="nonzero"/></g></svg>